<svg width="130" height="24" viewBox="0 0 130 24" fill="none" xmlns="http://www.w3.org/2000/svg">
<g clip-path="url(#clip0_1149_19126)">
<path d="M30.8161 12.8902C30.8161 12.7336 30.7926 12.5806 30.7702 12.4329L30.7627 12.3845C30.3632 9.42334 27.6572 6.50447 25.2754 5.39408C23.8529 4.55541 22.0897 4.23396 20.5341 3.9504C19.1851 3.70435 17.911 3.47178 17.0339 2.94928C16.9401 2.88882 16.844 2.83196 16.7459 2.77881C16.6538 2.72691 16.5585 2.67355 16.4784 2.62128C16.2466 2.47267 15.5031 1.83342 14.9854 1.23442C14.7324 0.932719 14.52 0.59929 14.3534 0.242586L14.2305 0V13.0359H15.6343V3.79032C15.8446 3.99138 16.0972 4.17405 16.4409 4.37365C17.2193 4.8315 18.5693 5.08429 19.9986 5.35201C21.5011 5.63357 23.055 5.92442 24.2969 6.48317C27.3572 7.87111 29.2511 11.1295 29.4414 12.9447C29.4414 13.0188 29.4482 13.0933 29.4546 13.1654C29.46 13.2271 29.4651 13.2854 29.4651 13.3348V15.2625H16.7771V21.7495H16.813C17.2546 21.7495 17.538 21.7253 17.9831 21.667L18.0942 21.663V16.5117H30.872V15.1944C30.872 14.4881 30.872 13.6089 30.8161 12.8902Z" fill="#CB0043"/>
<path d="M35.8438 18.4344V9.13086H42.2279V10.6461H37.4736V12.899H39.5747C40.4363 12.899 41.3657 12.8733 42.0929 13.4927C42.6453 13.9673 43.0629 14.7324 43.0629 15.6412C43.0629 16.5372 42.7132 17.2617 42.2007 17.7103C41.756 18.1044 41.0158 18.4344 39.8302 18.4344H35.8438ZM37.4736 16.9991H39.7765C40.2609 16.9991 40.692 16.8262 40.9348 16.6024C41.191 16.3658 41.3254 16.0517 41.3254 15.6965C41.3254 15.2481 41.1369 14.9018 40.8945 14.677C40.5308 14.3481 40.0191 14.3219 39.6146 14.3219H37.4737V16.9991H37.4736ZM50.6938 18.4116L50.2368 16.9515H46.4877L46.0581 18.4116H44.4193L47.3886 9.13086H49.3231L52.3864 18.4116H50.6938ZM48.5038 11.2083C48.4504 11.024 48.3836 10.6556 48.3428 10.3538C48.3153 10.5909 48.2619 10.985 48.2087 11.1816L46.9315 15.5201H49.7936L48.5038 11.2083ZM54.0314 9.13086H55.6457V12.8911H59.7753V9.13086H61.3894V18.4229H59.7753V14.3295H55.6457V18.4231H54.0314V9.13086Z" fill="#003959"/>
<path d="M75.5352 9.09884H78.8878C80.1275 9.09884 80.8675 9.52063 81.272 9.88961C81.6355 10.2324 82.1201 10.9175 82.1201 12.1419C82.1201 13.1179 81.7872 13.7521 81.2924 14.2895C80.8262 14.7963 79.9791 15.0324 78.9957 15.0324H77.1642V18.4H75.5353V9.09884H75.5352ZM78.8073 13.6147C79.3861 13.6147 79.764 13.4171 79.9789 13.2068C80.1942 12.9959 80.41 12.654 80.41 12.0609C80.41 11.5214 80.2352 11.1936 80.0061 10.957C79.6154 10.5618 79.0627 10.5358 78.8336 10.5358H77.1642V13.6147H78.8073ZM90.733 10.2413C91.7422 11.3843 91.9156 12.8121 91.9156 13.7604C91.9156 14.7087 91.7422 16.1371 90.733 17.2796C89.8035 18.3193 88.6348 18.5652 87.7202 18.5652C86.8045 18.5652 85.6358 18.3191 84.7074 17.2796C83.6979 16.1371 83.5248 14.7087 83.5248 13.7604C83.5248 12.8121 83.6977 11.3843 84.7074 10.2413C85.636 9.20301 86.8045 8.95605 87.7202 8.95605C88.6348 8.95605 89.8035 9.20301 90.733 10.2413ZM85.862 11.3584C85.5568 11.7866 85.2111 12.5142 85.2111 13.7602C85.2111 15.0069 85.5568 15.7344 85.862 16.1623C86.4064 16.902 87.123 17.0849 87.7202 17.0849C88.3174 17.0849 89.034 16.902 89.5784 16.1623C89.8836 15.7344 90.2293 15.0071 90.2293 13.7602C90.2293 12.5142 89.8836 11.7866 89.5784 11.3584C89.034 10.6176 88.3174 10.4358 87.7202 10.4358C87.123 10.4358 86.4064 10.6176 85.862 11.3584ZM113.373 9.15165V15.5789L117.723 9.15165H119.329V18.3963H117.723V11.9276L113.373 18.3963H111.767V9.15165H113.373Z" fill="#CB0043"/>
<path d="M68.572 9.13477L70.564 9.13622L66.4428 13.46L70.899 18.4412H68.8809L64.8465 14.1633V18.4412H63.2344V9.13622H64.8465V12.9566L68.572 9.13477Z" fill="#003959"/>
<path d="M123.081 18.3974H121.153L123.638 14.8413C122.398 14.6956 121.334 13.7136 121.334 12.0547C121.334 10.888 121.827 9.13854 124.452 9.13854H129.062V18.3974H127.459V15.0182H125.356L123.081 18.3974ZM125.145 10.5358C124.525 10.5358 122.993 10.2868 122.993 11.9997C122.993 12.6926 123.243 13.6211 125.199 13.6211H127.459V10.5358H125.145ZM99.6127 15.6359C99.5311 15.8208 99.4315 15.9971 99.3153 16.1624C98.7709 16.9022 98.0542 17.0851 97.4571 17.0851C96.8599 17.0851 96.1433 16.9022 95.5989 16.1624C95.2937 15.7346 94.948 15.0072 94.948 13.7604C94.948 12.5144 95.2937 11.7868 95.5989 11.3586C96.1433 10.6177 96.8599 10.436 97.4571 10.436C98.0542 10.436 98.7709 10.6177 99.3153 11.3586C99.4604 11.5626 99.6141 11.8372 99.7361 12.2007H101.469C101.306 11.5438 101.01 10.8523 100.47 10.2413C99.5405 9.20301 98.3719 8.95605 97.4573 8.95605C96.5415 8.95605 95.3729 9.20301 94.4442 10.2413C93.4347 11.3843 93.2617 12.8121 93.2617 13.7604C93.2617 14.7087 93.4345 16.1371 94.4442 17.2796C95.3729 18.3193 96.5414 18.5652 97.4573 18.5652C98.3719 18.5652 99.5405 18.3191 100.47 17.2796C100.924 16.766 101.202 16.1954 101.378 15.6357H99.6127V15.6359ZM108.41 15.6359C108.329 15.8208 108.229 15.9971 108.113 16.1624C107.569 16.9022 106.853 17.0851 106.255 17.0851C105.658 17.0851 104.941 16.9022 104.397 16.1624C104.091 15.7346 103.746 15.0072 103.746 13.7604C103.746 12.5144 104.092 11.7868 104.397 11.3586C104.941 10.6177 105.658 10.436 106.255 10.436C106.852 10.436 107.569 10.6177 108.113 11.3586C108.258 11.5626 108.412 11.8372 108.534 12.2007H110.266C110.104 11.5438 109.808 10.8523 109.268 10.2413C108.339 9.20301 107.17 8.95605 106.255 8.95605C105.34 8.95605 104.17 9.20301 103.242 10.2413C102.232 11.3843 102.06 12.8121 102.06 13.7604C102.06 14.7087 102.232 16.1371 103.242 17.2796C104.17 18.3193 105.339 18.5652 106.255 18.5652C107.17 18.5652 108.339 18.3191 109.268 17.2796C109.722 16.766 110 16.1954 110.176 15.6357H108.41V15.6359Z" fill="#CB0043"/>
<path d="M30.2584 17.5933H19.0525V18.9259H26.7244C26.4579 19.1679 26.2226 19.3468 25.7746 19.6702L25.7704 19.6742C23.0439 21.4484 19.4592 22.4401 15.6723 22.4683V14.3202H28.5306V12.8938H6.92864C6.96033 12.4992 7.0146 12.1223 7.0951 11.7424C7.12187 11.6057 7.14992 11.4629 7.17505 11.3542C7.26283 10.9808 7.37119 10.6381 7.4974 10.3343L7.69665 10.4009C7.9518 10.4863 8.21551 10.5743 8.49179 10.6586C9.21062 10.8785 9.8934 11.0336 10.5791 11.1329L10.7725 11.1591C11.299 11.2667 11.9078 11.3507 12.5815 11.409C13.1177 11.4554 13.6526 11.4802 14.2423 11.5048V9.96439C13.7346 9.94989 13.2276 9.91697 12.7223 9.86568C12.132 9.81031 11.5567 9.75203 10.9992 9.6424C10.8605 9.6424 10.716 9.6138 10.5906 9.58649C9.78667 9.44225 9.10754 9.27141 8.50909 9.06289C8.42219 9.04376 8.33645 9.01968 8.2523 8.99077C8.22243 8.98129 8.19329 8.97201 8.16543 8.96363C8.2441 8.81593 8.33261 8.6797 8.42568 8.53546C8.46065 8.48064 8.49652 8.42528 8.53186 8.36955C9.07349 7.58315 9.79032 6.85521 10.6051 6.2644C11.6374 5.51552 12.8185 5.02361 14.109 4.80233C14.1379 4.80233 14.1682 4.79996 14.1993 4.79687C14.2133 4.79577 14.2279 4.79541 14.2423 4.79432V3.22461L14.2079 3.23554C14.1703 3.24683 14.1314 3.2532 14.0935 3.25976C14.0509 3.26668 14.0068 3.2736 13.9638 3.28835C12.8253 3.3712 11.6935 3.52975 10.576 3.76296C9.78813 3.94272 9.10572 4.14177 8.49197 4.37052C8.04923 4.50238 7.61506 4.66191 7.12569 4.87336C6.74834 5.03872 6.33328 5.24179 5.81897 5.51097C5.04714 5.93076 4.39186 6.34964 3.81509 6.79128C2.89227 7.50101 2.10478 8.30653 1.47464 9.18673C1.00823 9.8491 0.643072 10.553 0.390287 11.28C0.128032 12.0604 0 12.8171 0 13.5932V13.6208C0 16.1121 1.3548 18.5372 3.81672 20.4513C3.95969 20.5511 4.11085 20.6588 4.26128 20.7658C4.40334 20.8671 4.54485 20.9678 4.68016 21.0627C4.95061 21.2312 5.24256 21.3991 5.52503 21.5615C5.62283 21.6184 5.72081 21.6746 5.8197 21.732C6.17957 21.9227 6.56877 22.095 6.94485 22.262L7.12606 22.3425C7.52308 22.5144 7.94397 22.6774 8.49106 22.871C9.17666 23.0987 9.87251 23.2944 10.5764 23.4572C12.1872 23.8178 13.8706 24.0005 15.5794 24.0005H15.5801C19.7695 24.0005 23.6902 22.9183 26.6178 20.9545C27.2168 20.5865 27.7311 20.1475 28.2072 19.7281C28.6177 19.3464 29.8008 18.1783 30.2114 17.6587L30.2573 17.6004H30.2468L30.2584 17.5933ZM5.6618 7.36679C5.72135 7.33073 5.78874 7.2903 5.85485 7.24076C6.2424 7.0071 6.66329 6.7962 7.07069 6.59168L7.15629 6.5487C7.50706 6.37422 7.84872 6.23654 8.21059 6.09084C8.31112 6.05041 8.41257 6.00943 8.51455 5.96736C8.54989 5.95443 8.58467 5.94314 8.61927 5.93167C8.57229 5.97902 8.52494 6.02655 8.47704 6.07336C7.94379 6.60388 7.48393 7.16682 7.11076 7.74432C7.04119 7.84303 6.9769 7.9503 6.91461 8.05357C6.85907 8.14536 6.8017 8.24079 6.74105 8.32966C6.42617 8.15676 6.13119 7.94984 5.8614 7.71264C5.73993 7.59316 5.65306 7.49919 5.58458 7.41341L5.6618 7.36679ZM1.84599 11.771C2.04213 11.1912 2.3399 10.6162 2.73037 10.0635C3.03342 9.66443 3.40458 9.19766 3.86262 8.76293C3.94712 8.67843 4.03309 8.59993 4.11631 8.52381C4.18789 8.45824 4.26183 8.39086 4.33413 8.31983C4.69273 8.77714 5.19211 9.19019 5.81679 9.54569C5.83609 9.55807 5.85722 9.57246 5.8798 9.58776C5.94336 9.63074 6.02076 9.68265 6.0978 9.72508C5.99672 9.9795 5.88472 10.2784 5.80185 10.5854L5.76852 10.7C5.70005 10.936 5.6292 11.1801 5.58185 11.4226C5.49716 11.9215 5.41885 12.4099 5.38825 12.8935H1.57681C1.63527 12.4857 1.7236 12.1183 1.84599 11.771ZM4.77815 18.595L4.76704 18.6097C4.66401 18.7398 4.56477 18.8729 4.46945 19.0087C4.26256 18.8275 4.05039 18.6408 3.86189 18.4511C2.54042 17.1912 1.77132 15.8018 1.57626 14.32H5.38898C5.44289 15.0886 5.57821 15.8353 5.80167 16.6004C5.88188 16.927 5.99053 17.2459 6.12639 17.5536C6.07849 17.5871 6.03132 17.6159 5.98161 17.6465C5.93098 17.6776 5.87871 17.7097 5.82498 17.7468H5.7973L5.78819 17.7526C5.39117 18.0147 5.06134 18.2894 4.77815 18.595ZM8.51437 21.2503C8.0504 21.0831 7.59689 20.8882 7.15629 20.6666L6.97235 20.5737C6.59809 20.3856 6.21144 20.1909 5.84811 19.9736C5.80367 19.9514 5.76124 19.9301 5.72099 19.8951C5.7576 19.851 5.79438 19.7988 5.83281 19.7434L5.91877 19.6165C6.08104 19.4555 6.30888 19.2435 6.63324 19.0381C6.65709 19.0257 6.68733 19.008 6.71847 18.9896C6.74488 18.9743 6.77201 18.9579 6.7966 18.9452C6.84851 19.0222 6.90004 19.1067 6.95013 19.1887C7.0024 19.2741 7.05667 19.363 7.11058 19.4425C7.50987 20.0331 7.96661 20.5827 8.47412 21.0833C8.53732 21.1632 8.60361 21.2364 8.67191 21.302C8.62054 21.2815 8.56792 21.2642 8.51437 21.2503ZM14.2405 22.3814L14.1594 22.3656C13.9012 22.3152 13.6342 22.2634 13.3652 22.1937C12.8465 22.0746 12.3109 21.8686 11.6288 21.5264C11.232 21.3175 10.9164 21.1228 10.6048 20.8942C9.7885 20.3282 9.07185 19.6017 8.53149 18.7927C8.41093 18.6246 8.29837 18.451 8.1942 18.2722C8.25248 18.2466 8.31112 18.2263 8.37723 18.203C8.4204 18.1883 8.46593 18.1724 8.51346 18.154C9.11847 17.959 9.83712 17.7678 10.5911 17.6013C11.7399 17.376 12.9339 17.2392 14.2405 17.1824V22.3814ZM14.2405 15.6448C12.9272 15.6987 11.6951 15.8369 10.5776 16.0562C9.87393 16.1863 9.17767 16.3538 8.49179 16.5579C8.17271 16.6563 7.8356 16.7663 7.52636 16.9047C7.40707 16.5787 7.31383 16.2674 7.21548 15.9385L7.17541 15.8052C7.06616 15.3151 6.9842 14.8192 6.92991 14.32H14.2405V15.6448Z" fill="#003959"/>
</g>
<defs>
<clipPath id="clip0_1149_19126">
<rect width="129.063" height="24" fill="white"/>
</clipPath>
</defs>
</svg>
